<svg height="512" viewBox="0 0 64 64" width="512" xmlns="http://www.w3.org/2000/svg"><g id="flat"><path d="m36 18h-2v-9a5.006 5.006 0 0 0 -5-5h-14a5.006 5.006 0 0 0 -5 5v9h-2v-9a7.009 7.009 0 0 1 7-7h14a7.009 7.009 0 0 1 7 7z" fill="#4f83d1"/><path d="m9 37h26v24h-26z" fill="#4da6ea"/><path d="m13 10h18v23h-18z" fill="#ffd782"/><path d="m16 18h2v2h-2z" fill="#394d5c"/><path d="m26 18h2v2h-2z" fill="#394d5c"/><path d="m6 37h3a0 0 0 0 1 0 0v14a0 0 0 0 1 0 0h-6a0 0 0 0 1 0 0v-11a3 3 0 0 1 3-3z" fill="#4f83d1"/><path d="m21 20h2v4h-2z" fill="#394d5c"/><path d="m11 34h-1a3 3 0 0 1 -3-3v-4h2v4a1 1 0 0 0 1 1h1z" fill="#4f83d1"/><path d="m3 51h6v10h-6z" fill="#ffd782"/><path d="m35 37h6a0 0 0 0 1 0 0v14a0 0 0 0 1 0 0h-3a3 3 0 0 1 -3-3v-11a0 0 0 0 1 0 0z" fill="#4f83d1" transform="matrix(-1 0 0 -1 76 88)"/><path d="m35 51h6v10h-6z" fill="#ffd782" transform="matrix(-1 0 0 -1 76 112)"/><path d="m9 16h4a0 0 0 0 1 0 0v12a0 0 0 0 1 0 0h-6a0 0 0 0 1 0 0v-10a2 2 0 0 1 2-2z" fill="#e97424"/><path d="m33 16h4a0 0 0 0 1 0 0v12a0 0 0 0 1 0 0h-4a2 2 0 0 1 -2-2v-8a2 2 0 0 1 2-2z" fill="#e97424" transform="matrix(-1 0 0 -1 68 44)"/><path d="m20 43.252-1 11.748 3 4 3-4-.982-11.748-2.018-.252z" fill="#f4f4e6"/><path d="m22 43-8 1 2-7z" fill="#4f83d1"/><path d="m22 43 8 1-2-7z" fill="#4f83d1"/><path d="m27 48h5v2h-5z" fill="#f4f4e6"/><path d="m13 15s9 1 12-4c0 0 1 4 6 4v-6a2 2 0 0 0 -2-2h-14a2 2 0 0 0 -2 2z" fill="#394d5c"/><path d="m3 20h4v4h-4z" fill="#4f83d1"/><path d="m37 20h4v4h-4z" fill="#4f83d1"/><path d="m7 19h3v2h-3z" fill="#f9bb4b"/><path d="m7 23h3v2h-3z" fill="#f9bb4b"/><path d="m34 19h3v2h-3z" fill="#f9bb4b"/><path d="m34 23h3v2h-3z" fill="#f9bb4b"/><path d="m22 31a4 4 0 0 1 -4-4h8a4 4 0 0 1 -4 4z" fill="#eb8cb3"/><path d="m40 16v-13h21v13h-9l-7 4v-4z" fill="#fcf05a"/><g fill="#dd3e46"><path d="m45 6h2v2h-2z"/><path d="m45 10h2v2h-2z"/><path d="m43 8h2v2h-2z"/><path d="m47 8h2v2h-2z"/><path d="m54 7h2v2h-2z"/><path d="m54 11h2v2h-2z"/><path d="m52 9h2v2h-2z"/><path d="m56 9h2v2h-2z"/></g></g></svg>