<svg height="512" viewBox="0 0 64 64" width="512" xmlns="http://www.w3.org/2000/svg"><g id="flat"><path d="m3 3h58v16h-58z" fill="#4da6ea"/><path d="m8 3h24v16h-24z" fill="#fcf05a"/><path d="m32 3h24v16h-24z" fill="#e2d23d"/><path d="m3 19h58v22h-58z" fill="#4f83d1"/><path d="m25 25v10a2.006 2.006 0 0 1 -2 2h-14a1.5 1.5 0 0 1 -.37-.04 2 2 0 0 1 -1.63-1.96v-10a2.006 2.006 0 0 1 2-2h14a2.006 2.006 0 0 1 2 2z" fill="#f4f4e6"/><path d="m28.707 37.707-1.414-1.414 1.707-1.707v-9.172l-1.707-1.707 1.414-1.414 2 2a1 1 0 0 1 .293.707v10a1 1 0 0 1 -.293.707z" fill="#345e9b"/><path d="m57 25v10a2.006 2.006 0 0 1 -2 2h-14a2.006 2.006 0 0 1 -2-2v-10a2.006 2.006 0 0 1 2-2h14a1.581 1.581 0 0 1 .38.04 2 2 0 0 1 1.62 1.96z" fill="#f4f4e6"/><path d="m35.293 37.707-2-2a1 1 0 0 1 -.293-.707v-10a1 1 0 0 1 .293-.707l2-2 1.414 1.414-1.707 1.707v9.172l1.707 1.707z" fill="#345e9b"/><path d="m20 7h4v4h-4z" fill="#f98c96"/><path d="m20 11h4v4h-4z" fill="#db527d"/><path d="m24 7h4v4h-4z" fill="#db527d"/><path d="m24 11h4v4h-4z" fill="#f98c96"/><path d="m12 7h4v4h-4z" fill="#f98c96"/><path d="m12 11h4v4h-4z" fill="#db527d"/><path d="m16 7h4v4h-4z" fill="#db527d"/><path d="m16 11h4v4h-4z" fill="#f98c96"/><g fill="#32b1cc"><path d="m16.71 31.71-5.29 5.29h-2.42a1.5 1.5 0 0 1 -.37-.04l6.66-6.67z"/><path d="m20.41 23-7.7 7.71-1.42-1.42 6.29-6.29z"/><path d="m55.38 23.04-7.67 7.67-1.42-1.42 6.29-6.29h2.42a1.581 1.581 0 0 1 .38.04z"/><path d="m52.71 30.71-6.29 6.29h-2.84l7.71-7.71z"/><path d="m43.586 31h2.828v2h-2.828z" transform="matrix(.707 -.707 .707 .707 -9.447 41.192)"/><path d="m16.586 28h2.828v2h-2.828z" transform="matrix(.707 -.707 .707 .707 -15.234 21.222)"/><path d="m25 25.58v2.84l-5.29 5.29-1.42-1.42z"/></g><path d="m3 41h58v20h-58z" fill="#4da6ea"/><path d="m44 7h4v4h-4z" fill="#db527d"/><path d="m44 11h4v4h-4z" fill="#f98c96"/><path d="m48 7h4v4h-4z" fill="#f98c96"/><path d="m48 11h4v4h-4z" fill="#db527d"/><path d="m36 7h4v4h-4z" fill="#db527d"/><path d="m36 11h4v4h-4z" fill="#f98c96"/><path d="m40 7h4v4h-4z" fill="#f98c96"/><path d="m40 11h4v4h-4z" fill="#db527d"/><path d="m7 45h22v12h-22z" fill="#fcf05a"/><path d="m33 45h8v4h-8z" fill="#98ecb7"/><path d="m33 53h4v4h-4z" fill="#fcf05a"/><path d="m37 53h4v4h-4z" fill="#f9bb4b"/><path d="m41 53h4v4h-4z" fill="#fcf05a"/><path d="m45 53h4v4h-4z" fill="#f9bb4b"/><circle cx="55" cy="47" fill="#f98c96" r="2"/><circle cx="55" cy="55" fill="#f98c96" r="2"/><path d="m48 44h2v2h-2z" fill="#fcf05a"/><path d="m48 48h2v2h-2z" fill="#fcf05a"/><path d="m44 48h2v2h-2z" fill="#fcf05a"/><path d="m44 44h2v2h-2z" fill="#fcf05a"/><path d="m12 54h-2v-6h7v2h-5z" fill="#f9bb4b"/><path d="m26 54h-5v-2h3v-2h2z" fill="#f9bb4b"/></g></svg>