<svg height="512" viewBox="0 0 64 64" width="512" xmlns="http://www.w3.org/2000/svg"><g id="flat"><path d="m42.665 9c-4.165 0-4.165 2-8.335 2s-4.165-2-8.33-2v12c4.165 0 4.165 2 8.33 2s4.167-2 8.335-2 4.167 2 8.335 2v-12c-4.168 0-4.168-2-8.335-2z" fill="#e1462b"/><path d="m34 20v-2a8.309 8.309 0 0 0 3.926-.914 10.355 10.355 0 0 1 4.739-1.086 9.334 9.334 0 0 1 4.6 1.1c.346.166.692.334 1.083.479l-.7 1.875c-.451-.168-.852-.359-1.253-.551a7.333 7.333 0 0 0 -3.734-.9 8.309 8.309 0 0 0 -3.926.914 10.355 10.355 0 0 1 -4.735 1.083z" fill="#f9bb4b"/><path d="m37.321 15.489-.642-1.889c.448-.152.847-.331 1.247-.509a10.349 10.349 0 0 1 4.739-1.091 9.334 9.334 0 0 1 4.6 1.1c.346.166.692.334 1.083.479l-.7 1.875c-.451-.168-.852-.359-1.253-.551a7.333 7.333 0 0 0 -3.734-.9 8.313 8.313 0 0 0 -3.927.914c-.434.192-.89.395-1.413.572z" fill="#f9bb4b"/><path d="m25 6h2v28h-2z" fill="#195c85"/><circle cx="26" cy="5" fill="#fcf05a" r="2"/><path d="m29 13h2v2h-2z" fill="#f9bb4b"/><path d="m33 14h2v2h-2z" fill="#f9bb4b"/><circle cx="26" cy="47" fill="#d3843d" r="14"/><path d="m17 47h-2a11.013 11.013 0 0 1 11-11v2a9.01 9.01 0 0 0 -9 9z" fill="#f9bb4b"/><circle cx="34" cy="48" fill="#66342e" r="2"/><circle cx="31" cy="41" fill="#66342e" r="3"/><circle cx="22" cy="52" fill="#66342e" r="2"/><g fill="#f9bb4b"><path d="m15 49h2v2h-2z"/><path d="m28 55h2v2h-2z"/><path d="m23 41h2v2h-2z"/></g></g></svg>