<svg height="512" viewBox="0 0 64 64" width="512" xmlns="http://www.w3.org/2000/svg"><g id="flat"><path d="m54 16h4v2h-4z" fill="#e97424"/><path d="m54 30h4v2h-4z" fill="#e97424"/><path d="m6 13h48v32h-48z" fill="#4f83d1"/><rect fill="#394d5c" height="12" rx="6" width="58" x="3" y="49"/><g fill="#aabece"><path d="m21 58h-12v-2h8.7l-3-2h-5.7v-2h6a1.006 1.006 0 0 1 .555.168l6 4a1 1 0 0 1 -.555 1.832z"/><path d="m55 58h-12a1 1 0 0 1 -.555-1.832l6-4a1.006 1.006 0 0 1 .555-.168h6v2h-5.7l-3 2h8.7z"/><path d="m38 58a1 1 0 0 1 -1-1v-3h-10v3a1 1 0 0 1 -1.707.707l-4-4a1 1 0 0 1 1.414-1.414l2.293 2.293v-1.586a1 1 0 0 1 1-1h12a1 1 0 0 1 1 1v1.586l2.293-2.293a1 1 0 0 1 1.414 1.414l-4 4a1 1 0 0 1 -.707.293z"/></g><path d="m18 45h6v4h-6z" fill="#f9bb4b"/><path d="m40 45h6v4h-6z" fill="#f9bb4b"/><path d="m10 33h8v8h-8z" fill="#91cdf2"/><path d="m10 25h8v8h-8z" fill="#4da6ea"/><path d="m10 17h8v8h-8z" fill="#91cdf2"/><path d="m18 33h8v8h-8z" fill="#4da6ea"/><path d="m18 25h8v8h-8z" fill="#91cdf2"/><path d="m18 17h8v8h-8z" fill="#4da6ea"/><path d="m26 33h8v8h-8z" fill="#91cdf2"/><path d="m26 25h8v8h-8z" fill="#4da6ea"/><path d="m26 17h8v8h-8z" fill="#91cdf2"/><path d="m34 33h8v8h-8z" fill="#4da6ea"/><path d="m34 25h8v8h-8z" fill="#91cdf2"/><path d="m34 17h8v8h-8z" fill="#4da6ea"/><path d="m42 33h8v8h-8z" fill="#91cdf2"/><path d="m42 25h8v8h-8z" fill="#4da6ea"/><path d="m42 17h8v8h-8z" fill="#91cdf2"/><path d="m58 36a1 1 0 0 1 -1-1v-32a1 1 0 0 1 2 0v32a1 1 0 0 1 -1 1z" fill="#f98c96"/><circle cx="9" cy="55" fill="#fcf05a" r="3"/><circle cx="55" cy="55" fill="#fcf05a" r="3"/><circle cx="32" cy="55" fill="#fcf05a" r="3"/></g></svg>