<svg height="512" viewBox="0 0 64 64" width="512" xmlns="http://www.w3.org/2000/svg"><g id="flat"><path d="m22 22h-4a1 1 0 0 1 -1-1v-5h2v4h3z" fill="#e97424"/><path d="m14 34.528h2v8.944h-2z" fill="#91cdf2" transform="matrix(.894 -.447 .447 .894 -15.858 10.826)"/><path d="m44.528 38h8.944v2h-8.944z" fill="#91cdf2" transform="matrix(.447 -.894 .894 .447 -7.796 65.386)"/><path d="m28 30h-6v-10l6-2z" fill="#91cdf2"/><path d="m36 16v14h-8v-14l.95-.47 3.05-1.53 3.05 1.53z" fill="#4f83d1"/><circle cx="32" cy="6" fill="#f98c96" r="3"/><circle cx="18" cy="14" fill="#f98c96" r="3"/><path d="m36 16v1.42l-3.29 3.29a1.014 1.014 0 0 1 -1.42 0l-3.29-3.29v-1.42l.95-.47 3.05 3.06 3.05-3.06z" fill="#fcf05a"/><path d="m22 38-4-1v-4l4-1z" fill="#4f83d1"/><path d="m36 30h6v-10l-6-2z" fill="#91cdf2"/><path d="m42 38 4-1v-4l-4-1z" fill="#4f83d1"/><path d="m54.034 50.258 2.134.2-4.2-15.712a1 1 0 0 0 -.968-.746h-5v2h4.231l2.2 8.265-11.767-4.9.437 1.182-9.101 14.566-9.152-14.643-.328.2.11-1.021-11.066 4.616 2.205-8.265h4.231v-2h-5a1 1 0 0 0 -.966.742l-4.34 16.188 2.272-.672.948-3.556 10.686-4.453 9.55 15.281h1.7l9.55-15.281 10.686 4.451z" fill="#e97424"/><path d="m36 47h-8l.923-4.615 3.077.615 3.077-.615z" fill="#4f83d1"/><path d="m32 14-4-5h8z" fill="#f9bb4b"/><path d="m44 22h-2v-2h1.586l4.707-4.707 1.414 1.414-5 5a1 1 0 0 1 -.707.293z" fill="#e97424"/><path d="m46 13.757h2v8.485h-2z" fill="#91cdf2" transform="matrix(.707 -.707 .707 .707 1.038 38.506)"/><g fill="#fcf05a"><path d="m28 25h3v2h-3z"/><path d="m33 25h3v2h-3z"/><path d="m28 21h3v2h-3z"/><path d="m33 21h3v2h-3z"/></g><path d="m5 50h8a0 0 0 0 1 0 0 4 4 0 0 1 -4 4 4 4 0 0 1 -4-4 0 0 0 0 1 0 0z" fill="#91cdf2"/><path d="m28 57h8a0 0 0 0 1 0 0 4 4 0 0 1 -4 4 4 4 0 0 1 -4-4 0 0 0 0 1 0 0z" fill="#91cdf2"/><path d="m55 50a4 4 0 0 1 4 4 0 0 0 0 1 0 0h-8a0 0 0 0 1 0 0 4 4 0 0 1 4-4z" fill="#91cdf2" transform="matrix(-1 0 0 -1 110 104)"/><path d="m31 47h2v10h-2z" fill="#f9bb4b"/><path d="m42 41-10 2-10-2v-11h20z" fill="#f9bb4b"/><path d="m29 42 3-8 3 8" fill="#fcf05a"/><path d="m36 34h-8l-2-4h12z" fill="#e97424"/><path d="m25 37h2v2h-2z" fill="#f4f4e6"/><path d="m37 37h2v2h-2z" fill="#f4f4e6"/></g></svg>