<svg height="512" viewBox="0 0 64 64" width="512" xmlns="http://www.w3.org/2000/svg"><g id="flat"><path d="m36.165 32.014 6 1a1 1 0 0 1 .815 1.186l-1 5a1 1 0 0 1 -.98.8h-5zm.835 5.986h3.18l.637-3.184-3.817-.635z" fill="#91cdf2"/><path d="m46 22h2v4h-2z" fill="#4f83d1"/><path d="m45 26h4v4h-4z" fill="#e97424"/><path d="m46 30h2v19h-2z" fill="#4f83d1"/><path d="m51.757 11h8.485v2h-8.485z" fill="#4f83d1" transform="matrix(.707 -.707 .707 .707 7.917 43.113)"/><path d="m56 8.172h2v5.657h-2z" fill="#e97424" transform="matrix(.707 -.707 .707 .707 8.917 43.527)"/><path d="m15 49h31v4h-31z" fill="#91cdf2"/><path d="m12 27-3 3 6 5v14h4v-16z" fill="#4f83d1"/><path d="m9 41h6v8h-6z" fill="#91cdf2"/><path d="m10 37h2v4h-2z" fill="#f98c96"/><path d="m23 45v-8a2 2 0 0 0 -2-2h-2v14h11v-2a2 2 0 0 0 -2-2z" fill="#f9bb4b"/><path d="m35 49h-2v-4a1 1 0 0 1 1-1h1v-18a1 1 0 0 1 .293-.707l2-2 1.414 1.414-1.707 1.707v18.586a1 1 0 0 1 -1 1h-1z" fill="#4f83d1"/><path d="m61 22-15-15v15z" fill="#f9bb4b"/><path d="m46 22 10-5 5 5z" fill="#e97424"/><path d="m46 7v15l5-10z" fill="#e97424"/><path d="m33 28h6v2h-6z" fill="#91cdf2"/><path d="m50 45a8 8 0 0 0 -8 8h16a8 8 0 0 0 -8-8z" fill="#e97424"/><path d="m54 53a3.882 3.882 0 0 1 -.56 2.02 3.725 3.725 0 0 1 -1.42 1.42 3.882 3.882 0 0 1 -2.02.56 4 4 0 0 1 -4-4 3.882 3.882 0 0 1 .56-2.02 3.725 3.725 0 0 1 1.42-1.42 3.882 3.882 0 0 1 2.02-.56 4 4 0 0 1 4 4z" fill="#394d5c"/><path d="m53.44 55.02a3.725 3.725 0 0 1 -1.42 1.42l-5.46-5.46a3.725 3.725 0 0 1 1.42-1.42z" fill="#7d8d9c"/><path d="m11 45a8 8 0 0 0 -8 8h16a8 8 0 0 0 -8-8z" fill="#e97424"/><path d="m15 53a3.882 3.882 0 0 1 -.56 2.02 3.725 3.725 0 0 1 -1.42 1.42 3.882 3.882 0 0 1 -2.02.56 4 4 0 0 1 -4-4 3.882 3.882 0 0 1 .56-2.02 3.725 3.725 0 0 1 1.42-1.42 3.882 3.882 0 0 1 2.02-.56 4 4 0 0 1 4 4z" fill="#394d5c"/><path d="m14.44 55.02a3.725 3.725 0 0 1 -1.42 1.42l-5.46-5.46a3.725 3.725 0 0 1 1.42-1.42z" fill="#7d8d9c"/></g></svg>