<svg height="512" viewBox="0 0 64 64" width="512" xmlns="http://www.w3.org/2000/svg"><g id="flat"><path d="m3 3h58v36h-58z" fill="#4f83d1"/><path d="m7 7h50v28h-50z" fill="#fcf05a"/><path d="m3 39h29v22h-29z" fill="#4da6ea"/><path d="m32 39h29v22h-29z" fill="#91cdf2"/><path d="m7 43h21v14h-21z" fill="#fcf05a"/><path d="m36 43h15v14h-15z" fill="#fcf05a"/><path d="m13 54a3 3 0 0 1 -3-3h-3v-2h3a2 2 0 0 1 2 2 1 1 0 0 0 2 0v-1.5a3.5 3.5 0 0 1 7 0v.5a1 1 0 0 0 2 0v-1a2 2 0 0 1 2-2h3v2h-3v1a3 3 0 0 1 -6 0v-.5a1.5 1.5 0 0 0 -3 0v1.5a3 3 0 0 1 -3 3z" fill="#e97424"/><path d="m17 52h2v2h-2z" fill="#32b1cc"/><path d="m12 46h2v2h-2z" fill="#32b1cc"/><path d="m59 50a2.772 2.772 0 0 1 -.18 1 3 3 0 1 1 0-2 2.772 2.772 0 0 1 .18 1z" fill="#e97424"/><circle cx="56" cy="43" fill="#e97424" r="2"/><circle cx="56" cy="57" fill="#e97424" r="2"/><path d="m39 47h5v2h-5z" fill="#8ec13f"/><path d="m46 47h2v2h-2z" fill="#8ec13f"/><path d="m39 51h3v2h-3z" fill="#8ec13f"/><path d="m44 51h4v2h-4z" fill="#8ec13f"/><path d="m32 32a11 11 0 1 1 11-11 11.013 11.013 0 0 1 -11 11zm0-20a9 9 0 1 0 9 9 9.01 9.01 0 0 0 -9-9z" fill="#e97424"/><path d="m32 28a7 7 0 1 1 7-7 7.008 7.008 0 0 1 -7 7zm0-12a5 5 0 1 0 5 5 5.006 5.006 0 0 0 -5-5z" fill="#e97424"/><path d="m26 10.343h2v11.314h-2z" fill="#2d75bb" transform="matrix(.707 -.707 .707 .707 -3.406 23.778)"/><path d="m12 15h-2v-5h5v2h-3z" fill="#8ec13f"/><path d="m54 15h-2v-3h-3v-2h5z" fill="#8ec13f"/><path d="m54 32h-5v-2h3v-3h2z" fill="#8ec13f"/><path d="m15 32h-5v-5h2v3h3z" fill="#8ec13f"/><circle cx="16" cy="18" fill="#f9bb4b" r="2"/><circle cx="48" cy="24" fill="#f9bb4b" r="2"/><g fill="#32b1cc"><path d="m17 23h2v2h-2z"/><path d="m11 22h2v2h-2z"/><path d="m43 28h2v2h-2z"/><path d="m48 16h2v2h-2z"/><path d="m43 12h2v2h-2z"/></g><path d="m59 50a2.772 2.772 0 0 1 -.18 1h-2.82v-2h2.82a2.772 2.772 0 0 1 .18 1z" fill="#fcf05a"/><circle cx="32" cy="21" fill="#e97424" r="2"/></g></svg>