<svg height="512" viewBox="0 0 64 64" width="512" xmlns="http://www.w3.org/2000/svg"><g id="flat"><g fill="#4f83d1"><path d="m20 42v5.141l-3.126-5.626a1.04 1.04 0 0 0 -1.748 0l-3.126 5.626v-5.141h-2v12h2v-2.741l4-7.2 4 7.2v2.741h2v-12z"/><path d="m2 51v-8c0-.553 2-.553 2 0v8c0 .553-2 .553-2 0z"/><path d="m7 47a1 1 0 0 1 -1-1v-7c0-.553 2-.553 2 0v7a1 1 0 0 1 -1 1z"/><path d="m11 43a1 1 0 0 1 -1-1v-7c0-.553 2-.553 2 0v7a1 1 0 0 1 -1 1z"/><path d="m16 42.555a.954.954 0 0 1 -1-.9v-6.309a1.005 1.005 0 0 1 2 0v6.308a.954.954 0 0 1 -1 .901z"/></g><path d="m57 46h-12a4 4 0 0 1 -4-4v-22a10 10 0 0 1 10-10 10 10 0 0 1 10 10v22a4 4 0 0 1 -4 4z" fill="#91cdf2"/><path d="m33 46h-4a4 4 0 0 1 -4-4v-16a6 6 0 0 1 6-6 6 6 0 0 1 6 6v16a4 4 0 0 1 -4 4z" fill="#91cdf2"/><path d="m37 26h4v16h-4z" fill="#4f83d1"/><path d="m21 26h4v16h-4z" fill="#4f83d1"/><path d="m3 52a1 1 0 0 1 -.748-1.664l8-9a1 1 0 0 1 .748-.336h10a1 1 0 0 1 0 2h-9.551l-7.7 8.664a1 1 0 0 1 -.749.336z" fill="#32b1cc"/><path d="m3 44a1 1 0 0 1 -.707-1.707l8-8a1 1 0 0 1 .707-.293h10a1 1 0 0 1 0 2h-9.586l-7.707 7.707a1 1 0 0 1 -.707.293z" fill="#32b1cc"/><path d="m45 22h12v8h-12z" fill="#fcf05a"/><circle cx="51" cy="26" fill="#f9bb4b" r="2"/><path d="m34 30h-2v-4a1 1 0 0 0 -2 0h-2a3 3 0 0 1 6 0z" fill="#f4f4e6"/><path d="m51 40h2v2h-2z" fill="#f4f4e6"/><path d="m54 37h2v2h-2z" fill="#f4f4e6"/><path d="m21.615 47h10.77v2h-10.77z" fill="#4f83d1" transform="matrix(.371 -.929 .929 .371 -27.592 55.262)"/><path d="m34 42.615h2v10.77h-2z" fill="#4f83d1" transform="matrix(.928 -.371 .371 .928 -15.323 16.432)"/><path d="m39.615 47h10.77v2h-10.77z" fill="#4f83d1" transform="matrix(.371 -.929 .929 .371 -16.271 71.977)"/><path d="m56 42.615h2v10.77h-2z" fill="#4f83d1" transform="matrix(.928 -.371 .371 .928 -13.75 24.602)"/><path d="m8 52h6v2h-6z" fill="#195c85"/><path d="m19 52h9v2h-9z" fill="#195c85"/><path d="m34 52h5v2h-5z" fill="#195c85"/><path d="m56 52h5v2h-5z" fill="#195c85"/><path d="m41 52h5v2h-5z" fill="#195c85"/><path d="m58 19h-2a4 4 0 0 0 -4-4h-2v-2h2a6.006 6.006 0 0 1 6 6z" fill="#f4f4e6"/><path d="m46 16h2v2h-2z" fill="#f4f4e6"/></g></svg>