<svg height="512" viewBox="0 0 64 64" width="512" xmlns="http://www.w3.org/2000/svg"><g id="flat"><path d="m22 57v-8h32c4 0 7 4 7 4s-3 4-7 4z" fill="#98ecb7"/><path d="m61 12a7.005 7.005 0 0 1 -7 7 6.8 6.8 0 0 1 -3.3-.84 6.95 6.95 0 0 1 -3.54-4.68 6.519 6.519 0 0 1 -.16-1.48 7 7 0 0 1 13.52-2.54 6.873 6.873 0 0 1 .48 2.54z" fill="#9362f5"/><path d="m43 18a9.761 9.761 0 0 1 -1.1 4.54 9.9 9.9 0 0 1 -3.9 4.11v1.35h-10v-1.35a9.994 9.994 0 1 1 13.9-13.19 9.791 9.791 0 0 1 1.1 4.54z" fill="#4da6ea"/><path d="m61 53s-3-4-7-4a9.659 9.659 0 0 1 0 8c4 0 7-4 7-4z" fill="#f98c96"/><path d="m42 50h8v6h-8z" fill="#5ab89d" transform="matrix(0 1 -1 0 99 7)"/><path d="m37 51h8v4h-8z" fill="#f98c96" transform="matrix(0 1 -1 0 94 12)"/><path d="m26 28v21h5 4l5-5v-16z" fill="#4f83d1"/><path d="m48 43h8a0 0 0 0 1 0 0v4a0 0 0 0 1 0 0h-6a2 2 0 0 1 -2-2v-2a0 0 0 0 1 0 0z" fill="#e97424" transform="matrix(0 1 -1 0 97 -7)"/><path d="m35 49 5-5h10v5z" fill="#f9bb4b"/><path d="m18 28h8v15h-8z" fill="#e97424"/><path d="m18 36-4-2v-6h4z" fill="#f9bb4b"/><path d="m26 42h14v2l-5 5h-9z" fill="#4da6ea"/><path d="m35.5 37h7.5l5-2v-5l-5 2h-7.5a2.5 2.5 0 0 0 -2.5 2.5 2.5 2.5 0 0 0 2.5 2.5z" fill="#f9bb4b"/><path d="m55 32.5a2.5 2.5 0 0 0 -2.5-2.5h-.5a2 2 0 0 0 -2-2 2 2 0 0 0 -2 2v5h4.5a2.5 2.5 0 0 0 2.5-2.5z" fill="#e97424"/><path d="m26 35a5.319 5.319 0 0 1 -4.895-2.553l1.783-.907a3.4 3.4 0 0 0 3.112 1.46 3.4 3.4 0 0 0 3.112-1.46l1.783.907a5.319 5.319 0 0 1 -4.895 2.553z" fill="#f4f4e6"/><path d="m26 39a5.319 5.319 0 0 1 -4.895-2.553l1.783-.907a3.4 3.4 0 0 0 3.112 1.46 3.4 3.4 0 0 0 3.112-1.46l1.783.907a5.319 5.319 0 0 1 -4.895 2.553z" fill="#f4f4e6"/><path d="m43 18a9.761 9.761 0 0 1 -1.1 4.54 9.041 9.041 0 0 1 -2.9.46c-3.87 0-7-2.24-7-5s3.13-5 7-5a9 9 0 0 1 2.9.46 9.791 9.791 0 0 1 1.1 4.54z" fill="#fcf05a"/><path d="m27 14h2v2h-2z" fill="#f4f4e6"/><path d="m26 18h2v2h-2z" fill="#f4f4e6"/><g fill="#d9176c"><path d="m4 30h2v2h-2z"/><path d="m4 34h2v2h-2z"/><path d="m2 32h2v2h-2z"/><path d="m6 32h2v2h-2z"/><path d="m10 40h2v2h-2z"/><path d="m10 44h2v2h-2z"/><path d="m8 42h2v2h-2z"/><path d="m12 42h2v2h-2z"/><path d="m58 22h2v2h-2z"/><path d="m58 26h2v2h-2z"/><path d="m56 24h2v2h-2z"/><path d="m60 24h2v2h-2z"/><path d="m16 10h2v2h-2z"/><path d="m16 14h2v2h-2z"/><path d="m14 12h2v2h-2z"/><path d="m18 12h2v2h-2z"/></g><path d="m2 19h18v2h-18z" fill="#32b1cc"/><path d="m4 23h16v2h-16z" fill="#32b1cc"/><path d="m4 54h11v2h-11z" fill="#32b1cc"/><path d="m60.52 9.46-2.29 1.45-3.2-2.07-3.2 1.04-1.06 3.1-3.61.5a6.519 6.519 0 0 1 -.16-1.48 7 7 0 0 1 13.52-2.54z" fill="#d0bafa"/><path d="m60.36 14.92a6.978 6.978 0 0 1 -6.36 4.08 6.8 6.8 0 0 1 -3.3-.84l3.3-1.88 1-3 2 1z" fill="#d0bafa"/><path d="m22 57-4 2v-12l4 2z" fill="#f98c96"/><path d="m2 50h13v2h-13z" fill="#32b1cc"/></g></svg>