<svg height="512" viewBox="0 0 64 64" width="512" xmlns="http://www.w3.org/2000/svg"><g id="flat"><path d="m7 35h50v26h-50z" fill="#91cdf2"/><path d="m32 5c-13.807 0-25 12.193-25 26h50c0-13.807-11.193-26-25-26z" fill="#4da6ea"/><path d="m39 6.083a23.164 23.164 0 0 0 -14 0v20.917h14z" fill="#4f83d1"/><path d="m17 3h8v24h-8z" fill="#f9bb4b"/><path d="m39 3h8v24h-8z" fill="#f9bb4b"/><path d="m32 46h7v15h-7z" fill="#eae9ca"/><path d="m25 46h7v15h-7z" fill="#f4f4e6"/><path d="m29 52h6v2h-6z" fill="#394d5c"/><path d="m15 47h6v6h-6z" fill="#f4f4e6"/><path d="m7 35h4v26h-4z" fill="#4da6ea"/><path d="m11 57h14v4h-14z" fill="#4f83d1"/><path d="m43 47h6v6h-6z" fill="#f4f4e6" transform="matrix(-1 0 0 -1 92 100)"/><path d="m53 35h4v26h-4z" fill="#4da6ea" transform="matrix(-1 0 0 -1 110 96)"/><path d="m39 57h14v4h-14z" fill="#4f83d1" transform="matrix(-1 0 0 -1 92 118)"/><path d="m19 39v2l5 2 1 3h14l1-3 5-2v-2z" fill="#4f83d1"/><path d="m48 38h2v2h-2z" fill="#fcf05a"/><path d="m48 42h2v2h-2z" fill="#fcf05a"/><path d="m14 38h2v2h-2z" fill="#fcf05a"/><path d="m14 42h2v2h-2z" fill="#fcf05a"/><path d="m27 39h2v4h-2z" fill="#2e5da0"/><path d="m35 39h2v4h-2z" fill="#2e5da0"/><path d="m31 39h2v4h-2z" fill="#2e5da0"/><path d="m5 31h54v4h-54z" fill="#4f83d1"/><path d="m15 27h34v4h-34z" fill="#fcf05a"/><path d="m25 27h4v4h-4z" fill="#4da6ea"/><path d="m35 27h4v4h-4z" fill="#4da6ea"/><path d="m11 26h42v2h-42z" fill="#2e5da0"/><circle cx="32" cy="16" fill="#fcf05a" r="7"/><circle cx="32" cy="16" fill="#32b1cc" r="3"/><g fill="#f4f4e6"><path d="m20 22h2v2h-2z"/><path d="m20 18h2v2h-2z"/><path d="m20 14h2v2h-2z"/><path d="m20 10h2v2h-2z"/><path d="m20 6h2v2h-2z"/><path d="m42 22h2v2h-2z"/><path d="m42 18h2v2h-2z"/><path d="m42 14h2v2h-2z"/><path d="m42 10h2v2h-2z"/><path d="m42 6h2v2h-2z"/></g></g></svg>