<svg height="512" viewBox="0 0 64 64" width="512" xmlns="http://www.w3.org/2000/svg"><g id="flat"><g fill="#91cdf2"><path d="m18 39h5v2h-5z"/><path d="m41 39h5v2h-5z"/><path d="m18 43h3v2h-3z"/><path d="m43 43h3v2h-3z"/><path d="m51 29h-38l12-18h14z"/></g><path d="m27 7h10v4h-10z" fill="#f9bb4b"/><path d="m41 35h-18c-2.164 0-4.269-1.7-6-3l-4-3h38l-4 3c-1.731 1.3-3.836 3-6 3z" fill="#4f83d1"/><path d="m28 15h4v4h-4z" fill="#fcf05a"/><path d="m32 15h4v4h-4z" fill="#f9bb4b"/><path d="m31 24h2v2h-2z" fill="#f98c96"/><path d="m27 22h2v2h-2z" fill="#f98c96"/><path d="m35 22h2v2h-2z" fill="#f98c96"/><path d="m43.667 18h-3.667v6h7.667z" fill="#4f83d1"/><path d="m24 24v-6h-3.667l-4 6z" fill="#4f83d1"/><path d="m24 29h6v6h-6z" fill="#fcf05a"/><path d="m39 51h-14v-12h-2v-4h18v4h-2z" fill="#f9bb4b"/><path d="m21 39h4v8h-4z" fill="#e97424"/><path d="m39 39h4v8h-4z" fill="#e97424"/><path d="m36 57h-8a12.677 12.677 0 0 1 2-6h4a12.677 12.677 0 0 1 2 6z" fill="#91cdf2"/><path d="m3 47h22v4h-22z" fill="#4f83d1"/><path d="m39 47h22v4h-22z" fill="#4f83d1"/><path d="m30 43h4v8h-4z" fill="#fcf05a"/><path d="m29 38h2v2h-2z" fill="#f4f4e6"/><path d="m33 38h2v2h-2z" fill="#f4f4e6"/><path d="m21 51h4v4h-4z" fill="#91cdf2"/><path d="m39 51h4v4h-4z" fill="#91cdf2"/></g></svg>