<svg height="512" viewBox="0 0 64 64" width="512" xmlns="http://www.w3.org/2000/svg"><g id="flat"><path d="m51 29v16a4 4 0 0 1 -4 4h-30a4 4 0 0 1 -4-4v-16a25.717 25.717 0 0 1 3.32-12c4.25-7.96 11.59-14 15.68-14 4.19 0 11.78 5.85 15.99 14.14a26.3 26.3 0 0 1 3.01 11.86z" fill="#4da6ea"/><path d="m20 49h4v4h-4z" fill="#f9bb4b"/><path d="m51 36v9a4 4 0 0 1 -4 4h-30a4 4 0 0 1 -4-4v-9h5a2.354 2.354 0 0 1 2 2l1 3h22l1-3a2.354 2.354 0 0 1 2-2z" fill="#4f83d1"/><path d="m28 61h-12l2-4h8z" fill="#4da6ea"/><path d="m40 49h4v4h-4z" fill="#f9bb4b"/><path d="m48 61h-12l2-4h8z" fill="#4da6ea"/><path d="m18 53h8v4h-8z" fill="#e97424"/><path d="m38 53h8v4h-8z" fill="#e97424"/><path d="m47.99 17.14a42.873 42.873 0 0 0 -16-2.81 43.554 43.554 0 0 0 -15.67 2.67c4.25-7.96 11.59-14 15.68-14 4.19 0 11.78 5.85 15.99 14.14z" fill="#f98c96"/><path d="m25 19h14v12h-14z" fill="#4f83d1"/><ellipse cx="32" cy="25" fill="#fcf05a" rx="3" ry="4"/><ellipse cx="19" cy="26" fill="#fcf05a" rx="2" ry="3"/><ellipse cx="45" cy="26" fill="#fcf05a" rx="2" ry="3"/><g fill="#2d5a9b"><path d="m47 46h-6v-2h5.153l.861-5.165 1.972.33-1 6a1 1 0 0 1 -.986.835z"/><path d="m23 46h-6a1 1 0 0 1 -.986-.835l-1-6 1.972-.33.861 5.165h5.153z"/><path d="m29 44h6v2h-6z"/><path d="m37 44h2v2h-2z"/><path d="m25 44h2v2h-2z"/></g><path d="m40.293 37.707-1.707-1.707h-13.172l-1.707 1.707-1.414-1.414 2-2a1 1 0 0 1 .707-.293h14a1 1 0 0 1 .707.293l2 2z" fill="#f4f4e6"/></g></svg>