<svg height="512" viewBox="0 0 64 64" width="512" xmlns="http://www.w3.org/2000/svg"><g id="flat"><path d="m24 16h11v20h-11z" fill="#4da6ea"/><path d="m18 24h8v12h-8z" fill="#f98c96"/><path d="m5 36h30v10h-30z" fill="#4f83d1"/><path d="m47 46h-12v-37l12-6z" fill="#f98c96"/><path d="m3 46h58v4h-58z" fill="#e97424"/><path d="m52 54h-40l-4-4h48z" fill="#f9bb4b"/><path d="m59 46h-12v-39l12 4z" fill="#4f83d1"/><path d="m3 10h18v4h-18z" fill="#e97424"/><path d="m5 14h14a0 0 0 0 1 0 0v2a2 2 0 0 1 -2 2h-10a2 2 0 0 1 -2-2v-2a0 0 0 0 1 0 0z" fill="#f98c96"/><path d="m12 3a7 7 0 0 0 -7 7h14a7 7 0 0 0 -7-7z" fill="#f9bb4b"/><path d="m9 42h4v4h-4z" fill="#fcf05a"/><path d="m17 40h6v6h-6z" fill="#fcf05a"/><path d="m27 42h4v4h-4z" fill="#fcf05a"/><path d="m39 20h4v4h-4z" fill="#fcf05a"/><path d="m39 28h4v4h-4z" fill="#fcf05a"/><path d="m39 36h4v4h-4z" fill="#fcf05a"/><path d="m10 18h4v18h-4z" fill="#4da6ea"/><path d="m21 27h2v2h-2z" fill="#fcf05a"/><path d="m21 31h2v2h-2z" fill="#fcf05a"/><g fill="#f4f4e6"><path d="m29 23h3v2h-3z"/><path d="m29 27h3v2h-3z"/><path d="m29 31h3v2h-3z"/><path d="m27 19h5v2h-5z"/><path d="m50 13h2v2h-2z"/><path d="m54 13h2v2h-2z"/><path d="m50 17h2v2h-2z"/><path d="m54 17h2v2h-2z"/></g><path d="m38 15h2v2h-2z" fill="#d9176c"/><path d="m42 15h2v2h-2z" fill="#d9176c"/><path d="m38 11h2v2h-2z" fill="#d9176c"/><path d="m42 11h2v2h-2z" fill="#d9176c"/><path d="m50 21h2v2h-2z" fill="#f4f4e6"/><path d="m54 21h2v2h-2z" fill="#f4f4e6"/><path d="m50 25h2v2h-2z" fill="#f4f4e6"/><path d="m54 25h2v2h-2z" fill="#f4f4e6"/><path d="m50 29h2v14h-2z" fill="#f4f4e6"/><path d="m54 29h2v14h-2z" fill="#f4f4e6"/><path d="m26 16 3-13 3 13z" fill="#f98c96"/><path d="m22 5h2v2h-2z" fill="#8ec13f"/><path d="m2 20h2v2h-2z" fill="#8ec13f"/><path d="m58 6h2v2h-2z" fill="#8ec13f"/><path d="m33 3h2v2h-2z" fill="#8ec13f"/><path d="m54 3h2v2h-2z" fill="#8ec13f"/><path d="m5 24h2v2h-2z" fill="#8ec13f"/><path d="m29 54h6v7h-6z" fill="#4da6ea"/></g></svg>