<svg height="512" viewBox="0 0 64 64" width="512" xmlns="http://www.w3.org/2000/svg"><g id="flat"><path d="m27 50h17v2h-17z" fill="#f9bb4b"/><path d="m61 30c0 1.48-.04 2.81-.12 4-.43 6.82-1.88 9-1.88 9h-16v-24h12s6 4 6 11z" fill="#4f83d1"/><path d="m29 17h10a0 0 0 0 1 0 0v20a0 0 0 0 1 0 0h-12a0 0 0 0 1 0 0v-18a2 2 0 0 1 2-2z" fill="#4f83d1"/><path d="m21 19h6v10h-6z" fill="#f9bb4b"/><circle cx="23" cy="53" fill="#394d5c" r="6"/><circle cx="9" cy="53" fill="#394d5c" r="6"/><circle cx="48" cy="53" fill="#394d5c" r="6"/><path d="m21 43h35v4h-35z" fill="#195c85"/><path d="m27 37h12v6h-12z" fill="#fcf05a"/><path d="m21 19v24h-2a12.093 12.093 0 0 1 -4.05-.7 11.681 11.681 0 0 1 -1.83-.84 12.1 12.1 0 0 1 -3.36-2.8v-.01a10.6 10.6 0 0 1 -1.16-1.67 11.871 11.871 0 0 1 -1.43-3.97 12.025 12.025 0 0 1 -.17-2.01v-.07a11.984 11.984 0 0 1 12-11.93z" fill="#91cdf2"/><path d="m21 29h6v14h-6z" fill="#e97424"/><g fill="#4f83d1"><path d="m16.71 31.71-6.95 6.94a10.6 10.6 0 0 1 -1.16-1.67l6.69-6.69z"/><path d="m17.96 31.26-3.01 11.04a11.681 11.681 0 0 1 -1.83-.84l2.92-10.72z"/><path d="m15.35 29.94-8.18 3.07a12.025 12.025 0 0 1 -.17-2.01v-.07l7.65-2.87z"/></g><path d="m21 22h3v2h-3z" fill="#f4f4e6"/><path d="m21 32h3v2h-3z" fill="#f4f4e6"/><path d="m21 36h3v2h-3z" fill="#f4f4e6"/><path d="m33.586 24h2.828v2h-2.828z" fill="#dd3e46" transform="matrix(.707 -.707 .707 .707 -7.426 32.071)"/><path d="m29.586 28h2.828v2h-2.828z" fill="#dd3e46" transform="matrix(.707 -.707 .707 .707 -11.426 30.414)"/><path d="m30 40h2v3h-2z" fill="#f9bb4b"/><path d="m34 40h2v3h-2z" fill="#f9bb4b"/><path d="m39 9h4v34h-4z" fill="#91cdf2"/><path d="m47 23h6s3 1 4 7h-8z" fill="#f4f4e6"/><path d="m46 33h2v2h-2z" fill="#f9bb4b"/><path d="m50 33h2v2h-2z" fill="#f9bb4b"/><path d="m43 39h6v4h-6z" fill="#fcf05a"/><path d="m60.88 34c-.43 6.82-1.88 9-1.88 9h-4v-9z" fill="#fcf05a"/><path d="m58 37h4v2h-4z" fill="#f9bb4b"/><path d="m43 9h-4l-1-4h6z" fill="#fcf05a"/><path d="m3 43h8v4h-8z" fill="#4f83d1"/><path d="m11 45h10v2h-10z" fill="#32b1cc"/><path d="m22 47h2v5h-2z" fill="#e97424"/><path d="m47 47h2v5h-2z" fill="#e97424"/><path d="m8 47h2v5h-2z" fill="#e97424"/><path d="m47 11h2v8h-2z" fill="#32b1cc"/><path d="m22 13h2v6h-2z" fill="#32b1cc"/><path d="m51 14h2v5h-2z" fill="#32b1cc"/><circle cx="17" cy="29" fill="#f4f4e6" r="3"/><circle cx="33" cy="27" fill="#f4f4e6" r="2"/><circle cx="23" cy="53" fill="#fcf05a" r="2"/><circle cx="9" cy="53" fill="#fcf05a" r="2"/><circle cx="48" cy="53" fill="#fcf05a" r="2"/></g></svg>