<svg xmlns="http://www.w3.org/2000/svg" xmlns:xlink="http://www.w3.org/1999/xlink" xmlns:fi="http://pattern.flaticon.com/" x="0" y="0" width="750" height="375" viewBox="0 0 750 375"><rect x="0px" y="0px" width="100%" height="100%" opacity="1" fill="#2f0d55"/><defs><g transform="matrix(-0.9375 0 0 0.9375 117.5 57.5)" id="L1_129"><path d="m61.93 5.62c-.46-1.11-2.59-1.13-5.71-.45l-.13.03 1.13 1.78c.11-.03.22-.05.32-.07a12.35 12.35 0 0 1 2.23-.31 10.783 10.783 0 0 1 -1.9 1.27c-1.16.66-2.58 1.37-3.79 1.97l-.53.27a33.67 33.67 0 0 1 -4.51 1.94 5.818 5.818 0 0 1 -2.13.44c.02-.34.52-.86 1.48-1.54.06-.04.12-.09.18-.13l-.32-2.22c-.08.06-.16.11-.24.17-1.61 1.15-3.62 2.94-2.94 4.61a1.728 1.728 0 0 0 1.02.96 2.488 2.488 0 0 0 .93.16 11.137 11.137 0 0 0 3.84-.98c.98-.38 2.16-.91 3.59-1.63l.53-.26q1.575-.78 2.88-1.47c3.01-1.6 4.74-2.9 4.07-4.54z" fill="#ad6327"/><path d="m54.98 11.63q1.575-.78 2.88-1.47a5 5 0 0 1 -4.86 3.84 4.937 4.937 0 0 1 -2.14-.48c.98-.38 2.16-.91 3.59-1.63z" fill="#d3843d"/><path d="m53.55 10.11a33.67 33.67 0 0 1 -4.51 1.94 4.882 4.882 0 0 1 -1.04-3.05 1.7 1.7 0 0 1 .01-.23 5 5 0 0 1 8.21-3.6 5.122 5.122 0 0 1 1.32 1.74 5.178 5.178 0 0 1 .33.96c-1.16.66-2.58 1.37-3.79 1.97z" fill="#d3843d"/><path d="m38 33a5.8 5.8 0 0 1 -.35 2 6 6 0 0 1 -11.65-2 5.8 5.8 0 0 1 .35-2 6 6 0 0 1 11.65 2z" fill="#e97424"/><path d="m37.65 35a6 6 0 0 1 -11.65-2 5.8 5.8 0 0 1 .35-2h3.34a2.195 2.195 0 0 1 2.34 2 2.195 2.195 0 0 0 2.34 2z" fill="#f9bb4b"/><path d="m32 44c-9.374 0-17-4.935-17-11s7.626-11 17-11a22.5 22.5 0 0 1 11.964 3.157l-1.075 1.686a20.5 20.5 0 0 0 -10.889-2.843c-8.271 0-15 4.037-15 9s6.729 9 15 9 15-4.037 15-9a5.921 5.921 0 0 0 -1.151-3.427l1.639-1.146a7.883 7.883 0 0 1 1.512 4.573c0 6.065-7.626 11-17 11z" fill="#394d5c"/><path d="m32 48c-8.45 0-16.362-2.8-20.647-7.312l1.447-1.376c3.923 4.125 11.28 6.688 19.2 6.688 12.131 0 22-5.832 22-13s-9.869-13-22-13-22 5.832-22 13a7.7 7.7 0 0 0 .207 1.771l-1.948.458a9.784 9.784 0 0 1 -.259-2.229c0-8.271 10.767-15 24-15s24 6.729 24 15-10.767 15-24 15z" fill="#394d5c"/><path d="m32 52c-16.542 0-30-8.523-30-19 0-8.3 8.359-15.577 20.8-18.1l.4 1.961c-11.485 2.327-19.2 8.813-19.2 16.139 0 9.374 12.561 17 28 17a38.676 38.676 0 0 0 19.489-4.859l1.022 1.718c-5.574 3.316-12.859 5.141-20.511 5.141z" fill="#394d5c"/><path d="m57.725 42.688-1.45-1.376a12.015 12.015 0 0 0 3.725-8.312c0-9.374-12.561-17-28-17-1.313 0-2.63.056-3.915.166l-.17-1.992c1.34-.115 2.715-.174 4.085-.174 16.542 0 30 8.523 30 19a13.935 13.935 0 0 1 -4.275 9.688z" fill="#394d5c"/><circle cx="55" cy="45" r="4" fill="#91cdf2"/><circle cx="11" cy="38" r="4" fill="#d3843d"/><circle cx="45" cy="28" r="4" fill="#e1462b"/><circle cx="25" cy="14" r="4" fill="#f9bb4b"/><path d="m25 54h2v2h-2z" fill="#fcf05a"/><path d="m25 58h2v2h-2z" fill="#fcf05a"/><path d="m23 56h2v2h-2z" fill="#fcf05a"/><path d="m27 56h2v2h-2z" fill="#fcf05a"/><path d="m37 6h2v2h-2z" fill="#fcf05a"/><path d="m37 10h2v2h-2z" fill="#fcf05a"/><path d="m35 8h2v2h-2z" fill="#fcf05a"/><path d="m39 8h2v2h-2z" fill="#fcf05a"/><path d="m15 10a3 3 0 0 1 -3-3 1 1 0 0 0 -2 0 3 3 0 0 1 -3 3 1 1 0 0 0 0 2 3 3 0 0 1 3 3 1 1 0 0 0 2 0 3 3 0 0 1 3-3 1 1 0 0 0 0-2zm-4 2.031a4.988 4.988 0 0 0 -1.031-1.031 4.988 4.988 0 0 0 1.031-1.031 4.988 4.988 0 0 0 1.031 1.031 4.988 4.988 0 0 0 -1.031 1.031z" fill="#f98c96"/><path d="m57 54a3 3 0 0 1 -3-3 1 1 0 0 0 -2 0 3 3 0 0 1 -3 3 1 1 0 0 0 0 2 3 3 0 0 1 3 3 1 1 0 0 0 2 0 3 3 0 0 1 3-3 1 1 0 0 0 0-2zm-4 2.031a4.988 4.988 0 0 0 -1.031-1.031 4.988 4.988 0 0 0 1.031-1.031 4.988 4.988 0 0 0 1.031 1.031 4.988 4.988 0 0 0 -1.031 1.031z" fill="#f98c96"/><circle cx="7" cy="53" r="4" fill="#50b4f8"/><g fill="#32b1cc"><path d="m19 31h2v2h-2z"/><path d="m41 34h2v2h-2z"/><path d="m50 29h2v2h-2z"/><path d="m14 26h2v2h-2z"/><path d="m22 36h2v2h-2z"/><path d="m5 17h2v2h-2z"/><path d="m19 7h2v2h-2z"/><path d="m57 17h2v2h-2z"/><path d="m42 53h2v2h-2z"/><path d="m16 52h2v2h-2z"/></g></g><path d="M165,0C74.019,0,0,74.019,0,165s74.019,165,165,165c90.982,0,165-74.019,165-165S255.982,0,165,0z" transform="matrix(0.03030303120613098 0 0 0.03030303120613098 345 82.5)" id="L1_127" fill="#ee4594"/><g transform="matrix(0.2577097088663652 0.6227985629244902 -0.6227985629244902 0.2577097088663652 274.54310173617824 54.49976369932109)" id="L1_126"><path d="m49 15c-2 10-10 10-10 10 .82-5.295 2.664-10.38 5.429-14.97-3.315 1.758-7.286.576-11.429 4.97-6 5-9.615 5.121-14 7-7 3-12 7-15 15-.66 2.275-.996 4.631-1 7 0 9.941 8.059 17 18 17 8.458 0 16-5.3 18-14 1-5 1.051-8.093 8-14 20-17 9.029-17.7 14-30 0 0-10 2-12 12z" fill="#fcf05a"/><path d="m34 43c0 .498-.03.996-.09 1.49-.069.674-.2 1.34-.39 1.99-1.559 5.627-6.681 9.522-12.52 9.52-2.19 0-2.19-2.04-4-3l-3-1c0-2-3-3-4.49-2.93-2.952-5.485-1.471-12.303 3.49-16.07l3.68.74 1.32.26c.32-.108.629-.249.92-.42 1.243-.776 2.022-2.116 2.08-3.58l6-1 4 3c.205 1.021.308 2.059.31 3.1 1.746 2.263 2.692 5.042 2.69 7.9z" fill="#d3843d"/><ellipse cx="25px" cy="36px" rx="2px" ry="3px" transform="matrix(0.707 -0.707 0.707 0.707 -18.343 28.718)" fill="#66342e"/><path d="m13.938 38.5h4.123v1.999h-4.123z" transform="matrix(0.97 -0.242 0.242 0.97 -9.094 5.054)" fill="#ad6327"/><path d="m15 44.438h1.999v4.123h-1.999z" transform="matrix(0.243 -0.97 0.97 0.243 -32.992 50.744)" fill="#ad6327"/><path d="m25 42.697h2v3.606h-2z" transform="matrix(0.832 -0.555 0.555 0.832 -20.317 21.896)" fill="#ad6327"/><path d="m19.501 48.92h1.999v3.162h-1.999z" transform="matrix(0.316 -0.949 0.949 0.316 -33.892 53.979)" fill="#ad6327"/><path d="m33.91 44.49c-.069.674-.2 1.34-.39 1.99l-.104.356-2.616-2.616-1.35.67-.9-1.78 1.23-.62-.73-2.17 1.9-.64.92 2.78z" fill="#ad6327"/><path d="m20.83 36.45-1.66 1.1-1.42-2.12-3.15 2.37-1.2-1.6 3.28-2.46 1.32.26c.32-.108.629-.249.92-.42z" fill="#ad6327"/><path d="m19 42h2v2h-2z" fill="#ad6327"/><path d="m21 40h2v2h-2z" fill="#ad6327"/><path d="m13.8 30.6-1.619-1.174c.212-.3 2.375-3.038 12.5-6.372 6.645-1.9 11.5-7.633 11.544-7.691l1.537 1.282c-.213.254-5.281 6.259-12.495 8.321-9.414 3.097-11.445 5.605-11.467 5.634z" fill="#e97424"/><path d="m37.979 39.207-1.959-.4c.043-.22 1.2-5.476 11.407-12.623 4-3 6.573-7.722 6.573-9.181h2c0 2.428-3.232 7.675-7.4 10.8-9.459 6.619-10.611 11.357-10.621 11.404z" fill="#e97424"/><path d="m52 13h2v2h-2z" fill="#66342e"/><path d="m31.6 28.8-1.2-1.6c.039-.028 3.764-2.852 4.653-5.516l1.9.632c-1.091 3.259-5.18 6.354-5.353 6.484z" fill="#e97424"/><path d="m35.707 33.707-1.414-1.414.707.707-.709-.7c1.886-2.125 3.173-4.714 3.729-7.5l1.96.392c-.622 3.175-2.099 6.119-4.273 8.515z" fill="#e97424"/><path d="m55 10h2v2h-2z" fill="#66342e"/><path d="m25 10-.75 3.01-.25.99-1.11.56-2.89 1.44-4-3 3-4z" fill="#d3843d"/><path d="m24.25 13.01-.25.99-1.11.56-3.34-1.67.9-1.78z" fill="#66342e"/><path d="m32 5-2 3 3 1 3-2z" fill="#d3843d"/><path d="m58 37-4 2-4-3 3-3h4z" fill="#d3843d"/><g fill="#66342e"><path d="m55.83 35.45-1.66 1.1-1.89-2.83.72-.72h1.2z"/><path d="m46 38h2v2h-2z"/><path d="m57 27h2v2h-2z"/><path d="m39 3h2v2h-2z"/><path d="m23 4h2v2h-2z"/><path d="m47 5h2v2h-2z"/><ellipse cx="14px" cy="43px" rx="2px" ry="3px"/><path d="m23 47c-1.172 1.171-1.781 3.219-1 4s2.828.171 4-1 1.781-3.219 1-4-2.828-.172-4 1z"/></g></g><path d="M165,0C74.019,0,0,74.019,0,165s74.019,165,165,165c90.982,0,165-74.019,165-165S255.982,0,165,0z" transform="matrix(0.03030303120613098 0 0 0.03030303120613098 82.5 257.5)" id="L1_128" fill="#bbaa02"/><g transform="matrix(0.3125 0 0 0.3125 340 165)" id="L1_131"><path d="m51 29v16a4 4 0 0 1 -4 4h-30a4 4 0 0 1 -4-4v-16a25.717 25.717 0 0 1 3.32-12c4.25-7.96 11.59-14 15.68-14 4.19 0 11.78 5.85 15.99 14.14a26.3 26.3 0 0 1 3.01 11.86z" fill="#4da6ea"/><path d="m20 49h4v4h-4z" fill="#f9bb4b"/><path d="m51 36v9a4 4 0 0 1 -4 4h-30a4 4 0 0 1 -4-4v-9h5a2.354 2.354 0 0 1 2 2l1 3h22l1-3a2.354 2.354 0 0 1 2-2z" fill="#4f83d1"/><path d="m28 61h-12l2-4h8z" fill="#4da6ea"/><path d="m40 49h4v4h-4z" fill="#f9bb4b"/><path d="m48 61h-12l2-4h8z" fill="#4da6ea"/><path d="m18 53h8v4h-8z" fill="#e97424"/><path d="m38 53h8v4h-8z" fill="#e97424"/><path d="m47.99 17.14a42.873 42.873 0 0 0 -16-2.81 43.554 43.554 0 0 0 -15.67 2.67c4.25-7.96 11.59-14 15.68-14 4.19 0 11.78 5.85 15.99 14.14z" fill="#f98c96"/><path d="m25 19h14v12h-14z" fill="#4f83d1"/><ellipse cx="32px" cy="25px" rx="3px" ry="4px" fill="#fcf05a"/><ellipse cx="19px" cy="26px" rx="2px" ry="3px" fill="#fcf05a"/><ellipse cx="45px" cy="26px" rx="2px" ry="3px" fill="#fcf05a"/><g fill="#2d5a9b"><path d="m47 46h-6v-2h5.153l.861-5.165 1.972.33-1 6a1 1 0 0 1 -.986.835z"/><path d="m23 46h-6a1 1 0 0 1 -.986-.835l-1-6 1.972-.33.861 5.165h5.153z"/><path d="m29 44h6v2h-6z"/><path d="m37 44h2v2h-2z"/><path d="m25 44h2v2h-2z"/></g><path d="m40.293 37.707-1.707-1.707h-13.172l-1.707 1.707-1.414-1.414 2-2a1 1 0 0 1 .707-.293h14a1 1 0 0 1 .707.293l2 2z" fill="#f4f4e6"/></g><g transform="matrix(0.3125 0 0 0.3125 165 165)" id="L1_133"><path d="m32 9a1 1 0 0 1 -1-1v-5a1 1 0 0 1 2 0v5a1 1 0 0 1 -1 1z" fill="#f9bb4b"/><path d="m24 37h16v16h-16z" fill="#e5e5d6"/><path d="m29 57h6v4h-6z" fill="#f9bb4b"/><path d="m29 53h6v4h-6z" fill="#ffd782"/><path d="m23 57h6v4h-6z" transform="matrix(-1 0 0 -1 52 118)" fill="#ffd782"/><path d="m23 57h6v-4h-5z" fill="#f9bb4b"/><path d="m35 57h6v4h-6z" fill="#ffd782"/><path d="m41 57h-6v-4h5z" fill="#f9bb4b"/><path d="m24 53h-5l5-10z" fill="#195c85"/><path d="m40 53h5l-5-10z" fill="#195c85"/><path d="m40 37h-16l2-4h12z" fill="#dd3e46"/><path d="m26 21h12v12h-12z" fill="#e5e5d6"/><path d="m38 21h-12l2-4h8z" fill="#dd3e46"/><path d="m36 11h-8l4-6z" fill="#dd3e46"/><path d="m28 11h8v6h-8z" fill="#e5e5d6"/><path d="m34 53h-4v-6l2-4 2 4z" fill="#195c85"/><path d="m27 40h2v2h-2z" fill="#32b1cc"/><path d="m35 40h2v2h-2z" fill="#32b1cc"/><g fill="#fcf05a"><path d="m41 12h2v2h-2z"/><path d="m41 16h2v2h-2z"/><path d="m39 14h2v2h-2z"/><path d="m43 14h2v2h-2z"/><path d="m19 23h2v2h-2z"/><path d="m19 27h2v2h-2z"/><path d="m17 25h2v2h-2z"/><path d="m21 25h2v2h-2z"/></g><path d="m35 29h-2v-3h-3v-2h4a1 1 0 0 1 1 1z" fill="#f4f4e6"/></g><g transform="matrix(1.4831409454345703 0 0 1.4831409454345703 143.53948974609375 241.53948974609375)" id="L1_137"><path d="m51 31c0 .17 0 .33-.01.5-.01.15-.01.29-.02.44 0 .13-.01.26-.02.39a19.012 19.012 0 0 1 -24.93 16.71 19.91 19.91 0 0 1 -2.52-1.04 19.007 19.007 0 0 1 -8.11-7.82c-.13-.21-.24-.42-.35-.64a18.342 18.342 0 0 1 -1.31-3.32l-.12-.42c-.05-.2-.1-.4-.13-.6a16.2 16.2 0 0 1 -.39-2.43 17.192 17.192 0 0 1 -.09-1.77c0-.15 0-.3.01-.45a.757.757 0 0 1 .01-.15 18.063 18.063 0 0 1 .52-3.92l.03-.12a19 19 0 0 1 28.55-11.44c.47.29.92.61 1.36.94.21.16.41.32.61.48s.38.32.57.49a18.692 18.692 0 0 1 3.39 4.02q.27.42.51.84a19.31 19.31 0 0 1 1.91 4.83c.02.09.04.17.06.26a18.1 18.1 0 0 1 .41 2.67c.04.51.06 1.03.06 1.55z" fill="#9362f5"/><path d="m59 54a6.8 6.8 0 0 1 -.74 3.12 6.974 6.974 0 0 1 -6.26 3.88 6.844 6.844 0 0 1 -3-.68 6.957 6.957 0 0 1 -3.9-5.16 6.336 6.336 0 0 1 -.1-1.16 7 7 0 0 1 13.37-2.89 6.822 6.822 0 0 1 .63 2.89z" fill="#50b4f8"/><path d="m58.37 51.11-2.24 1.46-3.09-2.06-3.09 1.03-1.03 3.08-3.82.54a6.336 6.336 0 0 1 -.1-1.16 7 7 0 0 1 13.37-2.89z" fill="#c8d952"/><path d="m58.26 57.12a6.974 6.974 0 0 1 -6.26 3.88 6.844 6.844 0 0 1 -3-.68l3.13-1.79 1-3 2 1z" fill="#c8d952"/><path d="m48.56 21.69c-2.05.36-4.55.39-7.44 1.6-4.59 1.93-3.45 4.81-8.05 4.81a82.9 82.9 0 0 0 -20.05 2.3 18.063 18.063 0 0 1 .52-3.92c3.23-.72 6.77-2.22 12.64-2.22 4.59 0 3.45-4.81 9.19-4.81a22.044 22.044 0 0 0 9.29-2.62 18.692 18.692 0 0 1 3.39 4.02q.27.42.51.84z" fill="#d0bafa"/><path d="m51 31c0 .17 0 .33-.01.5-.01.15-.01.29-.02.44a10.58 10.58 0 0 0 -6.37 2.61c-4.51 4.3-5.53 3.23-11.28 3.23-6.78 0-5.65 3.22-9.03 3.22-3.67 0-5.88-1.45-8.9-.82-.13-.21-.24-.42-.35-.64a18.342 18.342 0 0 1 -1.31-3.32 76.439 76.439 0 0 1 18.46-2.74c11.29 0 6.77-6.44 14.67-6.44a25.217 25.217 0 0 0 3.67-.26 18.1 18.1 0 0 1 .41 2.67c.04.51.06 1.03.06 1.55z" fill="#d0bafa"/><path d="m22 19h2v2h-2z" fill="#f98c96"/><path d="m26 16h2v2h-2z" fill="#f98c96"/><path d="m61 39a3 3 0 0 1 -3-3 1 1 0 0 0 -2 0 3 3 0 0 1 -3 3 1 1 0 0 0 0 2 3 3 0 0 1 3 3 1 1 0 0 0 2 0 3 3 0 0 1 3-3 1 1 0 0 0 0-2zm-4 2.031a4.988 4.988 0 0 0 -1.031-1.031 4.988 4.988 0 0 0 1.031-1.031 4.988 4.988 0 0 0 1.031 1.031 4.988 4.988 0 0 0 -1.031 1.031z" fill="#d9176c"/><path d="m11 20a3 3 0 0 1 -3-3 1 1 0 0 0 -2 0 3 3 0 0 1 -3 3 1 1 0 0 0 0 2 3 3 0 0 1 3 3 1 1 0 0 0 2 0 3 3 0 0 1 3-3 1 1 0 0 0 0-2zm-4 2.031a4.988 4.988 0 0 0 -1.031-1.031 4.988 4.988 0 0 0 1.031-1.031 4.988 4.988 0 0 0 1.031 1.031 4.988 4.988 0 0 0 -1.031 1.031z" fill="#d9176c"/><path d="m24 43h2v2h-2z" fill="#f98c96"/><path d="m29 41h2v2h-2z" fill="#f98c96"/><g fill="#fcf05a"><path d="m31 3h2v2h-2z"/><path d="m31 7h2v2h-2z"/><path d="m29 5h2v2h-2z"/><path d="m33 5h2v2h-2z"/><path d="m29 53h2v2h-2z"/><path d="m29 57h2v2h-2z"/><path d="m27 55h2v2h-2z"/><path d="m31 55h2v2h-2z"/></g><path d="m22 6h2v2h-2z" fill="#8ec13f"/><path d="m41 9h2v2h-2z" fill="#8ec13f"/><path d="m19 55h2v2h-2z" fill="#8ec13f"/><path d="m37 58h2v2h-2z" fill="#8ec13f"/><path d="m50.95 32.33a60.85 60.85 0 0 1 -11.87 9.88 77.5 77.5 0 0 1 -13.06 6.83 51.889 51.889 0 0 1 -6.16 2.07 26.421 26.421 0 0 1 -6.63 1c-3.09 0-5.27-.9-6.42-2.66-2.54-3.94 1.27-11.13 6.28-16.68a16.2 16.2 0 0 0 .39 2.43c-4.48 5.34-6.65 10.83-5.09 13.22 1.32 2.05 5.33 2.36 11 .88 1.32-.34 2.69-.78 4.11-1.3a73.812 73.812 0 0 0 14.56-7.36 59.045 59.045 0 0 0 12.88-11.19c4.38-5.22 6.42-10.16 4.67-12.85-1.46-2.25-6.78-1.44-11.52-.26-.2-.16-.4-.32-.61-.48-.44-.33-.89-.65-1.36-.94 6.6-1.78 12.83-2.79 15.07.66 2.21 3.41-.01 9.92-6.24 16.75z" fill="#91cdf2"/><path d="m16.98 8.43c-.11-.08-.23-.17-.35-.25l-1.15 1.64c.38.27.7.51.95.72.46.4.7.72.72.95a4.051 4.051 0 0 1 -1.16-.16 26.419 26.419 0 0 1 -5.49-2.22l-.53-.27c-1.55-.78-3.48-1.74-4.72-2.54a5.851 5.851 0 0 1 -.96-.7c.26.01.63.04 1.16.11.38.06.83.15 1.39.27l.43-1.96c-.22-.05-.43-.09-.63-.13-2.76-.54-4.08-.32-4.51.73-.58 1.41.63 2.58 2.9 3.89 1.11.65 2.49 1.34 4.04 2.12l.54.26a34.749 34.749 0 0 0 4.77 2.06 8.621 8.621 0 0 0 2.65.55 2.554 2.554 0 0 0 .94-.16 1.684 1.684 0 0 0 1.01-.96c.66-1.62-.52-2.86-2-3.95z" fill="#91cdf2"/><path d="m9.61 10.89a34.749 34.749 0 0 0 4.77 2.06 5.887 5.887 0 0 1 -3.38 1.05 5.991 5.991 0 0 1 -5.97-5.49c1.11.65 2.49 1.34 4.04 2.12z" fill="#f9bb4b"/><path d="m17 8c0 .15-.01.29-.02.43a5.725 5.725 0 0 1 -.55 2.11 4.688 4.688 0 0 1 -.44.79 26.419 26.419 0 0 1 -5.49-2.22l-.53-.27c-1.55-.78-3.48-1.74-4.72-2.54a4.1 4.1 0 0 1 .2-.59 5.852 5.852 0 0 1 1.19-1.82 5.992 5.992 0 0 1 10.36 4.11z" fill="#f9bb4b"/></g><g transform="matrix(1.016706109046936 0 0 1.016706109046936 235.46540451049805 150.46540451049805)" id="L1_139"><path d="m53.01 41.34q-.945-1.155-2.01-2.34l-1 4c.42.55.83 1.1 1.21 1.64 4.37 6.06 6.77 11.38 5.79 12.36-1.01 1.01-5.72-1.5-11.9-6.1a160.269 160.269 0 0 1 -17.1-14.9 161.625 161.625 0 0 1 -14.91-17.11c-4.59-6.17-7.1-10.88-6.09-11.89.98-.98 6.06 1.53 12.31 5.82.55.38 1.12.77 1.69 1.18l3-2c-.46-.35-.91-.68-1.35-1.01-9.4-6.9-16.21-9.43-18.65-6.99-2.37 2.37.5 9.65 6.97 18.67a133.225 133.225 0 0 0 14.03 16.33 133.787 133.787 0 0 0 16.32 14.02c9.03 6.47 16.31 9.35 18.68 6.98 2.28-2.28.36-9.69-6.99-18.66z" fill="#fcf05a"/><path d="m25 39a133.787 133.787 0 0 0 16.32 14.02 22.951 22.951 0 0 1 -14.09 1.48 22.168 22.168 0 0 1 -4.8-1.59 23.017 23.017 0 0 1 -13.01-16.51 23.612 23.612 0 0 1 -.42-4.4 24.006 24.006 0 0 1 .12-2.41 22.907 22.907 0 0 1 1.85-6.92 133.225 133.225 0 0 0 14.03 16.33z" fill="#91cdf2"/><path d="m55 32a22.733 22.733 0 0 1 -1.99 9.34 21.044 21.044 0 0 1 -1.8 3.3 22.755 22.755 0 0 1 -6.11 6.26 160.269 160.269 0 0 1 -17.1-14.9 161.625 161.625 0 0 1 -14.91-17.11 23.324 23.324 0 0 1 6.22-6.07 23.772 23.772 0 0 1 2.4-1.39c.31-.16.62-.3.94-.44a22.041 22.041 0 0 1 6.11-1.75 21.679 21.679 0 0 1 3.24-.24 23 23 0 0 1 20.89 13.38 23.193 23.193 0 0 1 2.11 9.62z" fill="#91cdf2"/><path d="m11 47a3 3 0 0 1 -3-3 1 1 0 0 0 -2 0 3 3 0 0 1 -3 3 1 1 0 0 0 0 2 3 3 0 0 1 3 3 1 1 0 0 0 2 0 3 3 0 0 1 3-3 1 1 0 0 0 0-2zm-4 2.031a4.988 4.988 0 0 0 -1.031-1.031 4.988 4.988 0 0 0 1.031-1.031 4.988 4.988 0 0 0 1.031 1.031 4.988 4.988 0 0 0 -1.031 1.031z" fill="#fcf05a"/><path d="m61 15a3 3 0 0 1 -3-3 1 1 0 0 0 -2 0 3 3 0 0 1 -3 3 1 1 0 0 0 0 2 3 3 0 0 1 3 3 1 1 0 0 0 2 0 3 3 0 0 1 3-3 1 1 0 0 0 0-2zm-4 2.031a4.988 4.988 0 0 0 -1.031-1.031 4.988 4.988 0 0 0 1.031-1.031 4.988 4.988 0 0 0 1.031 1.031 4.988 4.988 0 0 0 -1.031 1.031z" fill="#fcf05a"/><g fill="#f98c96"><path d="m4 37h2v2h-2z"/><path d="m58 35h2v2h-2z"/><path d="m49 8h2v2h-2z"/><path d="m35 58h2v2h-2z"/></g><circle cx="44" cy="42" r="2" fill="#4da6ea"/><circle cx="40" cy="34" r="3" fill="#4da6ea"/><circle cx="36" cy="16" r="2" fill="#4da6ea"/><path d="m31 24s-1 3 0 5c0 0-5 0-5-6 0 0 0-4-3-6-1.22-.81-1.45-3.43-1.29-5.57a22.383 22.383 0 0 1 7.05-2.19c-.04 2.48.16 6.14 1.24 7.76 2 3 1 7 1 7z" fill="#4f83d1"/><path d="m54.61 27.81c-2.39-1.45-3.83-.09-9.61-.81-8-1-6-5-6-5 5 1 4 1 9 0a12.226 12.226 0 0 1 4.89.38 22.189 22.189 0 0 1 1.72 5.43z" fill="#4f83d1"/><path d="m27.23 54.5a22.168 22.168 0 0 1 -4.8-1.59 25.573 25.573 0 0 1 -.43-3.91c0-3 1-4-2-6 0 0 4-2 6 3 1.2 2.99.61 6.17 1.23 8.5z" fill="#4f83d1"/><path d="m16 40a23.515 23.515 0 0 1 -6.58-3.6 23.612 23.612 0 0 1 -.42-4.4 24.006 24.006 0 0 1 .12-2.41 25.627 25.627 0 0 0 3.88 3.41c4 3 3 5 3 7z" fill="#4f83d1"/><path d="m19 19h2v2h-2z" fill="#f98c96"/><path d="m48 31h2v2h-2z" fill="#f98c96"/></g><g transform="matrix(0.5558328765609687 0.14499988515514917 -0.14499988515514917 0.5558328765609687 4.582510430092633 291.5275164633579)" id="L1_140"><path d="m32 3a8 8 0 0 1 8 8v16a0 0 0 0 1 0 0h-16a0 0 0 0 1 0 0v-16a8 8 0 0 1 8-8z" fill="#8ec13f"/><path d="m24 17h3a3 3 0 0 1 3 3v1a0 0 0 0 1 0 0h-3a3 3 0 0 1 -3-3v-1a0 0 0 0 1 0 0z" fill="#fcf05a"/><path d="m37 17h3a0 0 0 0 1 0 0v1a3 3 0 0 1 -3 3h-3a0 0 0 0 1 0 0v-1a3 3 0 0 1 3-3z" transform="matrix(-1 0 0 -1 74 38)" fill="#fcf05a"/><path d="m44 27v4h-24v-4h-4v4a4 4 0 0 0 4 4h6v22h4v-8a2 2 0 0 1 2-2 2 2 0 0 1 2 2v8h4v-22h6a4 4 0 0 0 4-4v-4z" fill="#d9176c"/><path d="m24 57h6a0 0 0 0 1 0 0v4a0 0 0 0 1 0 0h-8a0 0 0 0 1 0 0v-2a2 2 0 0 1 2-2z" fill="#b11e48"/><path d="m34 57h8a0 0 0 0 1 0 0v4a0 0 0 0 1 0 0h-6a2 2 0 0 1 -2-2v-2a0 0 0 0 1 0 0z" transform="matrix(-1 0 0 -1 76 118)" fill="#b11e48"/><path d="m17.5 20a2.5 2.5 0 0 0 -2.5 2.5v.5a2 2 0 0 0 -2 2 2 2 0 0 0 2 2h5v-4.5a2.5 2.5 0 0 0 -2.5-2.5z" fill="#8ec13f"/><path d="m4 37.5a2.5 2.5 0 0 0 2.5 2.5h.5a2 2 0 0 0 2 2 2 2 0 0 0 2-2v-5h-4.5a2.5 2.5 0 0 0 -2.5 2.5z" fill="#c8d952"/><path d="m46.5 20a2.5 2.5 0 0 1 2.5 2.5v.5a2 2 0 0 1 2 2 2 2 0 0 1 -2 2h-5v-4.5a2.5 2.5 0 0 1 2.5-2.5z" fill="#8ec13f"/><path d="m18 11h2a4 4 0 0 1 4 4v2a0 0 0 0 1 0 0h-3a3 3 0 0 1 -3-3v-3a0 0 0 0 1 0 0z" fill="#c8d952"/><path d="m43 11h3a0 0 0 0 1 0 0v2a4 4 0 0 1 -4 4h-2a0 0 0 0 1 0 0v-3a3 3 0 0 1 3-3z" transform="matrix(-1 0 0 -1 86 28)" fill="#c8d952"/><g fill="#d9176c"><path d="m29 7h2v2h-2z"/><path d="m33 9h2v2h-2z"/><path d="m28 12h2v2h-2z"/></g><path d="m11 35h15v4h-15z" fill="#b11e48"/><path d="m17.5 54a2.5 2.5 0 0 0 2.5-2.5v-.5a2 2 0 0 0 2-2 2 2 0 0 0 -2-2h-5v4.5a2.5 2.5 0 0 0 2.5 2.5z" fill="#8ec13f"/><path d="m26 39h-7a4 4 0 0 0 -4 4v4h4v-4h7z" fill="#db527d"/><path d="m60 37.5a2.5 2.5 0 0 1 -2.5 2.5h-.5a2 2 0 0 1 -2 2 2 2 0 0 1 -2-2v-5h4.5a2.5 2.5 0 0 1 2.5 2.5z" fill="#c8d952"/><path d="m38 35h15v4h-15z" transform="matrix(-1 0 0 -1 91 74)" fill="#b11e48"/><path d="m46.5 54a2.5 2.5 0 0 1 -2.5-2.5v-.5a2 2 0 0 1 -2-2 2 2 0 0 1 2-2h5v4.5a2.5 2.5 0 0 1 -2.5 2.5z" fill="#8ec13f"/><path d="m38 39h7a4 4 0 0 1 4 4v4h-4v-4h-7z" fill="#db527d"/><circle cx="32" cy="43" r="2" fill="#fcf05a"/><circle cx="32" cy="35" r="2" fill="#fcf05a"/></g></defs><g fi:class="KUsePattern" opacity="0.65"><pattern id="pattern_L1_129" width="350" height="350" patternUnits="userSpaceOnUse"><use xlink:href="#L1_129" x="-350" y="-350"/><use xlink:href="#L1_129" x="0" y="-350"/><use xlink:href="#L1_129" x="350" y="-350"/><use xlink:href="#L1_129" x="-350" y="0"/><use xlink:href="#L1_129" x="0" y="0"/><use xlink:href="#L1_129" x="350" y="0"/><use xlink:href="#L1_129" x="-350" y="350"/><use xlink:href="#L1_129" x="0" y="350"/><use xlink:href="#L1_129" x="350" y="350"/></pattern><rect x="0" y="0" width="100%" height="100%" fill="url(#pattern_L1_129)"/></g><g fi:class="KUsePattern" opacity="0.5"><pattern id="pattern_L1_127" width="350" height="350" patternUnits="userSpaceOnUse"><use xlink:href="#L1_127" x="-350" y="-350"/><use xlink:href="#L1_127" x="0" y="-350"/><use xlink:href="#L1_127" x="350" y="-350"/><use xlink:href="#L1_127" x="-350" y="0"/><use xlink:href="#L1_127" x="0" y="0"/><use xlink:href="#L1_127" x="350" y="0"/><use xlink:href="#L1_127" x="-350" y="350"/><use xlink:href="#L1_127" x="0" y="350"/><use xlink:href="#L1_127" x="350" y="350"/></pattern><rect x="0" y="0" width="100%" height="100%" fill="url(#pattern_L1_127)"/></g><g fi:class="KUsePattern" opacity="0.6"><pattern id="pattern_L1_126" width="350" height="350" patternUnits="userSpaceOnUse"><use xlink:href="#L1_126" x="-350" y="-350"/><use xlink:href="#L1_126" x="0" y="-350"/><use xlink:href="#L1_126" x="350" y="-350"/><use xlink:href="#L1_126" x="-350" y="0"/><use xlink:href="#L1_126" x="0" y="0"/><use xlink:href="#L1_126" x="350" y="0"/><use xlink:href="#L1_126" x="-350" y="350"/><use xlink:href="#L1_126" x="0" y="350"/><use xlink:href="#L1_126" x="350" y="350"/></pattern><rect x="0" y="0" width="100%" height="100%" fill="url(#pattern_L1_126)"/></g><g fi:class="KUsePattern" opacity="0.5"><pattern id="pattern_L1_128" width="350" height="350" patternUnits="userSpaceOnUse"><use xlink:href="#L1_128" x="-350" y="-350"/><use xlink:href="#L1_128" x="0" y="-350"/><use xlink:href="#L1_128" x="350" y="-350"/><use xlink:href="#L1_128" x="-350" y="0"/><use xlink:href="#L1_128" x="0" y="0"/><use xlink:href="#L1_128" x="350" y="0"/><use xlink:href="#L1_128" x="-350" y="350"/><use xlink:href="#L1_128" x="0" y="350"/><use xlink:href="#L1_128" x="350" y="350"/></pattern><rect x="0" y="0" width="100%" height="100%" fill="url(#pattern_L1_128)"/></g><g fi:class="KUsePattern" opacity="0.5"><pattern id="pattern_L1_131" width="350" height="350" patternUnits="userSpaceOnUse"><use xlink:href="#L1_131" x="-350" y="-350"/><use xlink:href="#L1_131" x="0" y="-350"/><use xlink:href="#L1_131" x="350" y="-350"/><use xlink:href="#L1_131" x="-350" y="0"/><use xlink:href="#L1_131" x="0" y="0"/><use xlink:href="#L1_131" x="350" y="0"/><use xlink:href="#L1_131" x="-350" y="350"/><use xlink:href="#L1_131" x="0" y="350"/><use xlink:href="#L1_131" x="350" y="350"/></pattern><rect x="0" y="0" width="100%" height="100%" fill="url(#pattern_L1_131)"/></g><g fi:class="KUsePattern" opacity="0.5"><pattern id="pattern_L1_133" width="350" height="350" patternUnits="userSpaceOnUse"><use xlink:href="#L1_133" x="-350" y="-350"/><use xlink:href="#L1_133" x="0" y="-350"/><use xlink:href="#L1_133" x="350" y="-350"/><use xlink:href="#L1_133" x="-350" y="0"/><use xlink:href="#L1_133" x="0" y="0"/><use xlink:href="#L1_133" x="350" y="0"/><use xlink:href="#L1_133" x="-350" y="350"/><use xlink:href="#L1_133" x="0" y="350"/><use xlink:href="#L1_133" x="350" y="350"/></pattern><rect x="0" y="0" width="100%" height="100%" fill="url(#pattern_L1_133)"/></g><g fi:class="KUsePattern" opacity="0.7"><pattern id="pattern_L1_137" width="350" height="350" patternUnits="userSpaceOnUse"><use xlink:href="#L1_137" x="-350" y="-350"/><use xlink:href="#L1_137" x="0" y="-350"/><use xlink:href="#L1_137" x="350" y="-350"/><use xlink:href="#L1_137" x="-350" y="0"/><use xlink:href="#L1_137" x="0" y="0"/><use xlink:href="#L1_137" x="350" y="0"/><use xlink:href="#L1_137" x="-350" y="350"/><use xlink:href="#L1_137" x="0" y="350"/><use xlink:href="#L1_137" x="350" y="350"/></pattern><rect x="0" y="0" width="100%" height="100%" fill="url(#pattern_L1_137)"/></g><g fi:class="KUsePattern" opacity="0.65"><pattern id="pattern_L1_139" width="350" height="350" patternUnits="userSpaceOnUse"><use xlink:href="#L1_139" x="-350" y="-350"/><use xlink:href="#L1_139" x="0" y="-350"/><use xlink:href="#L1_139" x="350" y="-350"/><use xlink:href="#L1_139" x="-350" y="0"/><use xlink:href="#L1_139" x="0" y="0"/><use xlink:href="#L1_139" x="350" y="0"/><use xlink:href="#L1_139" x="-350" y="350"/><use xlink:href="#L1_139" x="0" y="350"/><use xlink:href="#L1_139" x="350" y="350"/></pattern><rect x="0" y="0" width="100%" height="100%" fill="url(#pattern_L1_139)"/></g><g fi:class="KUsePattern" opacity="0.6"><pattern id="pattern_L1_140" width="350" height="350" patternUnits="userSpaceOnUse"><use xlink:href="#L1_140" x="-350" y="-350"/><use xlink:href="#L1_140" x="0" y="-350"/><use xlink:href="#L1_140" x="350" y="-350"/><use xlink:href="#L1_140" x="-350" y="0"/><use xlink:href="#L1_140" x="0" y="0"/><use xlink:href="#L1_140" x="350" y="0"/><use xlink:href="#L1_140" x="-350" y="350"/><use xlink:href="#L1_140" x="0" y="350"/><use xlink:href="#L1_140" x="350" y="350"/></pattern><rect x="0" y="0" width="100%" height="100%" fill="url(#pattern_L1_140)"/></g></svg>